<?xml version="1.0" encoding="utf-8"?>
<!-- Generator: Adobe Illustrator 27.8.1, SVG Export Plug-In . SVG Version: 6.00 Build 0)  -->
<svg version="1.1" id="Lager_1" xmlns="http://www.w3.org/2000/svg" xmlns:xlink="http://www.w3.org/1999/xlink" x="0px" y="0px"
	 viewBox="0 0 35 35" style="enable-background:new 0 0 35 35;" xml:space="preserve">
<style type="text/css">
	.st0{fill:#FF9900;}
	.st1{fill:#FFFFFF;}
</style>
<path class="st0" d="M13.5,0h8C28.9,0,35,6.1,35,13.5v8C35,28.9,28.9,35,21.5,35h-8C6.1,35,0,28.9,0,21.5v-8C0,6.1,6.1,0,13.5,0z"/>
<path class="st1" d="M25.8,12.2c-0.3-0.3-0.8-0.3-1.1,0L15,22l-3.7-3.8c-0.3-0.3-0.8-0.3-1.1,0c-0.3,0.3-0.3,0.8,0,1.2l4.2,4.3
	c0.3,0.3,0.8,0.3,1.1,0l10.2-10.4C26.1,13.1,26.1,12.6,25.8,12.2z"/>
</svg>
