<?xml version="1.0" encoding="UTF-8"?>
<svg id="Lager_1" data-name="Lager 1" xmlns="http://www.w3.org/2000/svg" viewBox="0 0 184.59 40.57">
  <defs>
    <style>
      .cls-1 {
        fill: #173a56;
      }

      .cls-1, .cls-2, .cls-3, .cls-4, .cls-5 {
        fill-rule: evenodd;
        stroke-width: 0px;
      }

      .cls-2 {
        fill: #fc3b36;
      }

      .cls-3 {
        fill: #35b74b;
      }

      .cls-4 {
        fill: #157ffb;
      }

      .cls-5 {
        fill: #fecc2f;
      }
    </style>
  </defs>
  <path class="cls-1" d="m99.89,17.47c-.89-.56-1.95-.84-3.19-.84-1.33,0-2.53.33-3.58.99-1.05.66-1.88,1.61-2.49,2.85-.61,1.24-.91,2.7-.91,4.39s.3,3.13.91,4.38c.61,1.25,1.44,2.2,2.49,2.87,1.05.66,2.25.99,3.58.99,1.24,0,2.3-.28,3.19-.84.89-.56,1.54-1.32,1.94-2.28v2.91h4.96V11.6h-4.96v8.15c-.41-.96-1.05-1.72-1.94-2.28Zm-53.47,15.44v-7.14h3.07c1.6,0,2.97-.28,4.09-.85,1.12-.57,1.97-1.34,2.54-2.33s.86-2.12.86-3.38c0-2.04-.64-3.65-1.91-4.85-1.28-1.2-3.13-1.8-5.57-1.8h-8.03v20.36h4.96Zm5.51-13.71c0,1.75-1,2.62-2.99,2.62h-2.52v-5.3h2.52c1.99,0,2.99.89,2.99,2.68Zm12.44.66c.62-.98,1.42-1.76,2.39-2.33.98-.58,2.03-.86,3.17-.86v5.27h-1.42c-1.31,0-2.33.28-3.06.84-.72.56-1.09,1.5-1.09,2.82v7.32h-4.96v-16.07h4.96v3.02Zm19.53-2.23c-1.27-.66-2.7-.99-4.31-.99s-3.04.33-4.32.99c-1.28.66-2.28,1.62-3,2.87-.72,1.25-1.09,2.71-1.09,4.38s.36,3.13,1.09,4.38,1.73,2.2,3,2.87c1.28.66,2.72.99,4.32.99s3.04-.33,4.31-.99c1.27-.66,2.26-1.62,2.99-2.87.72-1.25,1.09-2.71,1.09-4.38s-.36-3.13-1.09-4.38c-.72-1.25-1.72-2.2-2.99-2.87Zm-4.31,3.27c-.95,0-1.74.34-2.39,1.02-.65.68-.97,1.67-.97,2.95s.32,2.27.97,2.94c.65.67,1.44,1.01,2.39,1.01s1.74-.34,2.38-1.01c.64-.67.96-1.65.96-2.94s-.32-2.27-.96-2.95c-.64-.68-1.43-1.02-2.38-1.02Zm18.7.06c-1.06,0-1.92.35-2.57,1.04-.65.69-.97,1.65-.97,2.88s.32,2.19.97,2.88c.65.69,1.5,1.04,2.57,1.04s1.9-.36,2.57-1.07c.67-.71,1-1.66,1-2.85s-.33-2.16-1-2.87c-.67-.7-1.52-1.05-2.57-1.05Zm23.02,11.95h4.99v-16.07h-4.99v8.52c0,1.17-.29,2.07-.87,2.71s-1.37.95-2.38.95-1.73-.3-2.31-.91c-.57-.6-.86-1.45-.86-2.55v-8.73h-4.93v9.33c0,2.15.55,3.84,1.64,5.07,1.09,1.23,2.57,1.84,4.42,1.84,1.22,0,2.29-.28,3.2-.84.92-.56,1.61-1.31,2.07-2.25v2.91Zm15.72-16.27c2.09,0,3.84.57,5.25,1.71,1.41,1.14,2.3,2.71,2.67,4.71h-5.25c-.15-.69-.47-1.23-.96-1.61s-1.09-.58-1.83-.58c-.87,0-1.58.34-2.15,1.02-.56.68-.84,1.68-.84,2.98s.28,2.3.84,2.98c.56.68,1.28,1.02,2.15,1.02.73,0,1.34-.19,1.83-.58.48-.38.8-.92.96-1.61h5.25c-.37,2-1.26,3.57-2.67,4.71-1.41,1.14-3.16,1.71-5.25,1.71-1.58,0-2.99-.33-4.22-.99-1.23-.66-2.19-1.62-2.89-2.87-.7-1.25-1.04-2.71-1.04-4.38s.34-3.15,1.03-4.39c.69-1.24,1.65-2.19,2.89-2.85,1.24-.66,2.65-.99,4.23-.99Zm19.66,16.27v-4.23h-1.57c-.62,0-1.06-.12-1.32-.37-.26-.25-.39-.69-.39-1.32v-5.99h3.25v-4.15h-3.25v-3.95h-4.96v3.95h-2.17v4.15h2.17v5.9c0,2.15.53,3.69,1.58,4.62,1.05.93,2.53,1.4,4.42,1.4h2.23Zm7.74-21.31v21.31h-4.96V11.6h4.96Zm11.05,15.09l-3.88-9.85h-5.54l6.79,15.47-3.8,8.27h5.45l10.09-23.73h-5.48l-3.62,9.85Z"/>
  <g>
    <path class="cls-3" d="m28.79,25.6v-10.17c0-3.02-1.97-5.56-4.69-6.46l-8.33,9.44,13.02,7.19Z"/>
    <path class="cls-2" d="m21.76,8.6H6.83c-1.12,0-2.16.29-3.09.76l4.08,15.03,13.93-15.79Z"/>
    <path class="cls-4" d="m8.45,26.7l2.91,10.72h10.59c3.77,0,6.83-3.06,6.83-6.83v-2.7l-14.38-7.94-5.96,6.75Z"/>
    <path class="cls-5" d="m0,15.43v15.15c0,3.77,3.06,6.83,6.83,6.83h2.45L2.01,10.6c-1.24,1.24-2.01,2.94-2.01,4.83Z"/>
  </g>
</svg>